<?xml version="1.0" standalone="no"?>
<!DOCTYPE svg PUBLIC "-//W3C//DTD SVG 20010904//EN"
 "http://www.w3.org/TR/2001/REC-SVG-20010904/DTD/svg10.dtd">
<svg version="1.0" xmlns="http://www.w3.org/2000/svg"
 width="223.000000pt" height="223.000000pt" viewBox="0 0 223.000000 223.000000"
 preserveAspectRatio="xMidYMid meet">
<metadata>
Created by potrace 1.11, written by Peter Selinger 2001-2013
</metadata>
<g transform="translate(0.000000,223.000000) scale(0.100000,-0.100000)"
fill="#000000" stroke="none">
<path d="M837 2216 c-101 -38 -151 -111 -151 -222 1 -65 -1 -73 -24 -86 -23
-14 -27 -13 -73 18 -84 56 -173 57 -257 1 -65 -44 -97 -104 -97 -183 0 -50 6
-72 37 -131 l37 -70 -29 -70 c-86 -212 -88 -455 -5 -673 84 -219 286 -421 505
-505 115 -44 197 -58 333 -60 l128 -1 105 -112 c59 -62 108 -111 110 -109 2 2
-12 58 -31 125 -19 66 -35 125 -35 130 0 6 21 17 46 26 66 22 166 80 231 133
l55 45 100 -98 c74 -74 98 -93 93 -74 -3 14 -23 86 -44 159 l-37 135 43 70
c88 142 126 285 126 466 0 276 -104 504 -315 685 -137 118 -270 174 -498 210
-30 5 -40 14 -75 72 -28 48 -53 75 -86 96 -56 34 -136 44 -192 23z m135 -65
c13 -5 34 -20 48 -34 26 -26 440 -736 440 -754 0 -10 -254 -163 -269 -163 -4
0 -103 168 -221 373 -235 406 -242 423 -204 502 33 70 128 106 206 76z m-450
-260 c13 -5 34 -20 48 -34 38 -37 444 -747 434 -757 -11 -11 -268 -160 -270
-157 -5 4 -402 694 -417 724 -36 70 -13 165 52 209 38 25 107 33 153 15z m517
-567 c90 -157 162 -286 160 -288 -11 -9 -51 -27 -54 -24 -9 9 -325 561 -325
567 0 7 37 29 50 30 3 0 79 -128 169 -285z m509 -101 c45 -82 52 -121 25 -146
-28 -24 -193 -117 -209 -117 -31 0 -53 22 -94 92 -23 40 -42 76 -43 80 -2 7
259 167 273 167 3 0 24 -34 48 -76z m-451 -259 c45 -75 53 -122 26 -147 -28
-24 -193 -117 -209 -117 -32 0 -53 22 -99 100 -26 45 -46 83 -43 85 15 16 265
154 273 152 6 -2 29 -35 52 -73z m556 -48 c49 -31 87 -62 84 -69 -5 -18 -218
-139 -233 -133 -11 4 -14 33 -14 119 0 107 1 116 23 131 30 21 38 18 140 -48z
m-459 -267 c47 -30 86 -59 86 -65 0 -16 -230 -148 -240 -137 -4 4 -10 59 -12
121 l-5 113 26 14 c35 20 46 16 145 -46z m616 -119 c16 -57 28 -105 27 -107
-2 -1 -38 33 -81 76 -53 53 -77 84 -73 95 8 19 79 57 90 47 4 -4 21 -54 37
-111z m-495 -160 c6 -10 65 -209 65 -220 0 -2 -36 31 -80 75 -44 44 -80 87
-80 95 0 9 17 26 38 38 42 25 48 26 57 12z"/>
</g>
</svg>
