{"asset":{"version":"2.0","generator":"babylon.js glTF exporter for 3ds max 2019 v1.3.10"},"scene":0,"scenes":[{"nodes":[0,1,2,3,4,5,6,7,8,9,10,11,12,13,14,15],"extensions":{}}],"nodes":[{"mesh":0,"translation":[0.0,0.0,0.0],"rotation":[0.0,0.0,0.0,1.0],"scale":[1.0,1.0,1.0],"name":"CenterBox"},{"mesh":1,"translation":[0.0,20.0,17.0],"rotation":[0.564720631,-0.425547451,-0.425547421,0.564720631],"scale":[0.99999994,1.0,0.99999994],"name":"RightCylinder1"},{"mesh":1,"translation":[0.0,20.0,-17.0],"rotation":[-0.5647209,-0.4255471,0.425547034,0.564721],"scale":[1.0,1.0,1.0],"name":"LeftCylinder1"},{"mesh":2,"translation":[55.0,25.0,-63.0],"rotation":[0.0,0.0,0.0,1.0],"scale":[1.0,1.0,1.0],"name":"LeftBox1"},{"mesh":2,"translation":[55.0,25.0,63.0],"rotation":[0.0,0.0,0.0,1.0],"scale":[1.0,1.0,1.0],"name":"RightBox1"},{"mesh":3,"translation":[-55.0,25.0,-63.0],"rotation":[0.0,0.0,0.0,1.0],"scale":[1.0,1.0,1.0],"name":"LeftBox2"},{"mesh":3,"translation":[-55.0,25.0,63.0],"rotation":[0.0,0.0,0.0,1.0],"scale":[1.0,1.0,1.0],"name":"RightBox2"},{"mesh":4,"translation":[-55.0,-10.0,-63.0],"rotation":[0.0,0.0,0.0,1.0],"scale":[1.0,1.0,1.0],"name":"LeftBox3"},{"mesh":4,"translation":[-55.0,-10.0,63.0],"rotation":[0.0,0.0,0.0,1.0],"scale":[1.0,1.0,1.0],"name":"RightBox3"},{"mesh":5,"translation":[55.0,-10.0,-63.0],"rotation":[0.0,0.0,0.0,1.0],"scale":[1.0,1.0,1.0],"name":"LeftBox4"},{"mesh":5,"translation":[55.0,-10.0,63.0],"rotation":[0.0,0.0,0.0,1.0],"scale":[1.0,1.0,1.0],"name":"RightBox4"},{"mesh":6,"translation":[0.0,20.0,65.0],"rotation":[0.7071068,0.0,0.0,0.7071067],"scale":[1.0,1.0,1.0],"name":"RightCylinder2"},{"mesh":6,"translation":[0.0,20.0,-65.0],"rotation":[-5.3385083E-08,-0.7071068,0.7071068,-5.3385083E-08],"scale":[1.0,1.0,1.0],"name":"LeftCylinder2"},{"mesh":7,"translation":[0.0,50.0,0.0],"rotation":[0.0,0.0,0.0,1.0],"scale":[1.0,1.0,1.0],"name":"CenterCone"},{"mesh":8,"translation":[0.0,40.0,0.0],"rotation":[0.0,0.0,0.0,1.0],"scale":[1.0,1.0,1.0],"name":"CenterCylinder"},{"translation":[0.0,0.0,0.0],"rotation":[0.0,0.0,0.0,1.0],"scale":[1.0,1.0,1.0],"name":"Default light"}],"meshes":[{"primitives":[{"attributes":{"POSITION":1,"NORMAL":2,"TEXCOORD_0":3},"indices":0}],"name":"CenterBox"},{"primitives":[{"attributes":{"POSITION":5,"NORMAL":6,"TEXCOORD_0":7},"indices":4}],"name":"RightCylinder1"},{"primitives":[{"attributes":{"POSITION":9,"NORMAL":10,"TEXCOORD_0":11},"indices":8}],"name":"LeftBox1"},{"primitives":[{"attributes":{"POSITION":13,"NORMAL":14,"TEXCOORD_0":15},"indices":12}],"name":"LeftBox2"},{"primitives":[{"attributes":{"POSITION":17,"NORMAL":18,"TEXCOORD_0":19},"indices":16}],"name":"LeftBox3"},{"primitives":[{"attributes":{"POSITION":21,"NORMAL":22,"TEXCOORD_0":23},"indices":20}],"name":"LeftBox4"},{"primitives":[{"attributes":{"POSITION":25,"NORMAL":26,"TEXCOORD_0":27},"indices":24}],"name":"RightCylinder2"},{"primitives":[{"attributes":{"POSITION":29,"NORMAL":30,"TEXCOORD_0":31},"indices":28}],"name":"CenterCone"},{"primitives":[{"attributes":{"POSITION":33,"NORMAL":34,"TEXCOORD_0":35},"indices":32}],"name":"CenterCylinder"}],"accessors":[{"bufferView":0,"componentType":5123,"count":36,"type":"SCALAR","name":"accessorIndices"},{"bufferView":1,"componentType":5126,"count":36,"max":[20.0,40.0,17.0],"min":[-20.0,0.0,-17.0],"type":"VEC3","name":"accessorPositions"},{"bufferView":1,"byteOffset":432,"componentType":5126,"count":36,"type":"VEC3","name":"accessorNormals"},{"bufferView":2,"componentType":5126,"count":36,"type":"VEC2","name":"accessorUVs"},{"bufferView":0,"byteOffset":72,"componentType":5123,"count":648,"type":"SCALAR","name":"accessorIndices"},{"bufferView":1,"byteOffset":864,"componentType":5126,"count":648,"max":[17.0000019,45.0,16.7417374],"min":[-17.0,-1.90734863E-06,-16.7417336],"type":"VEC3","name":"accessorPositions"},{"bufferView":1,"byteOffset":8640,"componentType":5126,"count":648,"type":"VEC3","name":"accessorNormals"},{"bufferView":2,"byteOffset":288,"componentType":5126,"count":648,"type":"VEC2","name":"accessorUVs"},{"bufferView":0,"byteOffset":1368,"componentType":5123,"count":36,"type":"SCALAR","name":"accessorIndices"},{"bufferView":1,"byteOffset":16416,"componentType":5126,"count":36,"max":[50.0,25.0,1.0],"min":[-50.0,0.0,-1.0],"type":"VEC3","name":"accessorPositions"},{"bufferView":1,"byteOffset":16848,"componentType":5126,"count":36,"type":"VEC3","name":"accessorNormals"},{"bufferView":2,"byteOffset":5472,"componentType":5126,"count":36,"type":"VEC2","name":"accessorUVs"},{"bufferView":0,"byteOffset":1440,"componentType":5123,"count":36,"type":"SCALAR","name":"accessorIndices"},{"bufferView":1,"byteOffset":17280,"componentType":5126,"count":36,"max":[50.0,25.0,1.0],"min":[-50.0,0.0,-1.0],"type":"VEC3","name":"accessorPositions"},{"bufferView":1,"byteOffset":17712,"componentType":5126,"count":36,"type":"VEC3","name":"accessorNormals"},{"bufferView":2,"byteOffset":5760,"componentType":5126,"count":36,"type":"VEC2","name":"accessorUVs"},{"bufferView":0,"byteOffset":1512,"componentType":5123,"count":36,"type":"SCALAR","name":"accessorIndices"},{"bufferView":1,"byteOffset":18144,"componentType":5126,"count":36,"max":[50.0,25.0,1.0],"min":[-50.0,0.0,-1.0],"type":"VEC3","name":"accessorPositions"},{"bufferView":1,"byteOffset":18576,"componentType":5126,"count":36,"type":"VEC3","name":"accessorNormals"},{"bufferView":2,"byteOffset":6048,"componentType":5126,"count":36,"type":"VEC2","name":"accessorUVs"},{"bufferView":0,"byteOffset":1584,"componentType":5123,"count":36,"type":"SCALAR","name":"accessorIndices"},{"bufferView":1,"byteOffset":19008,"componentType":5126,"count":36,"max":[50.0,25.0,1.0],"min":[-50.0,0.0,-1.0],"type":"VEC3","name":"accessorPositions"},{"bufferView":1,"byteOffset":19440,"componentType":5126,"count":36,"type":"VEC3","name":"accessorNormals"},{"bufferView":2,"byteOffset":6336,"componentType":5126,"count":36,"type":"VEC2","name":"accessorUVs"},{"bufferView":0,"byteOffset":1656,"componentType":5123,"count":648,"type":"SCALAR","name":"accessorIndices"},{"bufferView":1,"byteOffset":19872,"componentType":5126,"count":648,"max":[17.0,17.0,16.7417336],"min":[-17.0,0.0,-16.7417316],"type":"VEC3","name":"accessorPositions"},{"bufferView":1,"byteOffset":27648,"componentType":5126,"count":648,"type":"VEC3","name":"accessorNormals"},{"bufferView":2,"byteOffset":6624,"componentType":5126,"count":648,"type":"VEC2","name":"accessorUVs"},{"bufferView":0,"byteOffset":2952,"componentType":5123,"count":864,"type":"SCALAR","name":"accessorIndices"},{"bufferView":1,"byteOffset":35424,"componentType":5126,"count":864,"max":[17.0,15.0,17.0],"min":[-17.0,0.0,-17.0],"type":"VEC3","name":"accessorPositions"},{"bufferView":1,"byteOffset":45792,"componentType":5126,"count":864,"type":"VEC3","name":"accessorNormals"},{"bufferView":2,"byteOffset":11808,"componentType":5126,"count":864,"type":"VEC2","name":"accessorUVs"},{"bufferView":0,"byteOffset":4680,"componentType":5123,"count":648,"type":"SCALAR","name":"accessorIndices"},{"bufferView":1,"byteOffset":56160,"componentType":5126,"count":648,"max":[17.0,10.0,16.7417336],"min":[-17.0,0.0,-16.7417316],"type":"VEC3","name":"accessorPositions"},{"bufferView":1,"byteOffset":63936,"componentType":5126,"count":648,"type":"VEC3","name":"accessorNormals"},{"bufferView":2,"byteOffset":18720,"componentType":5126,"count":648,"type":"VEC2","name":"accessorUVs"}],"bufferViews":[{"buffer":0,"byteLength":5976,"name":"bufferViewScalar"},{"buffer":0,"byteOffset":5976,"byteLength":71712,"byteStride":12,"name":"bufferViewFloatVec3"},{"buffer":0,"byteOffset":77688,"byteLength":23904,"byteStride":8,"name":"bufferViewFloatVec2"}],"buffers":[{"uri":"HomeBase_V2.bin","byteLength":101592}]}